<?xml version="1.0" standalone="no"?>
<!DOCTYPE svg PUBLIC "-//W3C//DTD SVG 20010904//EN"
 "http://www.w3.org/TR/2001/REC-SVG-20010904/DTD/svg10.dtd">
<svg version="1.0" xmlns="http://www.w3.org/2000/svg"
 width="530.000000pt" height="647.000000pt" viewBox="0 0 530.000000 647.000000"
 preserveAspectRatio="xMidYMid meet">

<g transform="translate(0.000000,647.000000) scale(0.100000,-0.100000)"
fill="#000000" stroke="none">
<path d="M4414 6014 c-3 -11 -21 -60 -40 -110 -19 -50 -37 -114 -41 -142 -4
-41 -14 -60 -49 -100 -52 -59 -165 -149 -319 -252 -67 -46 -145 -110 -200
-166 -98 -99 -113 -108 -339 -208 -163 -73 -223 -91 -321 -101 -117 -10 -169
-30 -230 -85 -34 -31 -64 -50 -79 -50 -44 0 -48 58 -11 138 58 126 5 321 -120
442 -61 58 -65 60 -116 60 -124 0 -212 -88 -260 -262 -24 -85 -24 -169 -2
-211 9 -18 17 -55 17 -84 1 -42 -4 -57 -22 -75 -21 -21 -24 -22 -33 -5 -6 11
-22 17 -44 17 -26 0 -45 9 -73 35 -54 48 -79 55 -194 55 -97 0 -104 1 -165 36
-35 19 -88 39 -119 44 -37 6 -82 25 -132 55 -50 30 -88 45 -110 45 -28 0 -46
11 -94 55 -49 45 -231 165 -252 165 -3 0 -50 27 -105 60 -63 39 -119 82 -155
121 -51 55 -56 64 -56 106 0 28 -13 78 -34 132 -19 47 -36 95 -38 106 -2 11
-10 20 -18 20 -22 0 -24 -57 -5 -115 34 -103 -11 -119 -121 -41 -89 62 -152
94 -171 87 -22 -9 -2 -31 79 -83 62 -39 84 -63 58 -63 -6 0 -46 18 -89 40 -83
42 -121 50 -121 25 0 -10 32 -31 82 -56 46 -21 89 -46 97 -54 28 -28 -16 -28
-76 0 -68 32 -121 46 -128 35 -10 -15 47 -50 115 -70 68 -20 108 -50 95 -70
-5 -8 -32 -10 -89 -5 l-81 6 24 -21 c17 -15 37 -20 76 -20 38 0 65 -7 101 -27
28 -16 73 -30 108 -34 l59 -7 140 -146 c160 -168 300 -284 580 -479 144 -101
202 -148 213 -171 11 -22 34 -41 79 -64 84 -44 186 -146 225 -226 38 -78 49
-173 50 -432 0 -175 1 -185 31 -280 27 -83 32 -120 37 -226 5 -137 -9 -288
-35 -381 -13 -48 -14 -62 -3 -82 11 -21 10 -41 -6 -127 -27 -149 -27 -749 1
-943 35 -251 29 -550 -16 -696 -22 -76 -24 -170 -4 -254 8 -33 15 -88 15 -122
0 -60 -1 -63 -24 -63 -13 0 -34 -9 -47 -19 l-24 -19 18 -69 c9 -37 17 -93 17
-124 0 -52 -4 -62 -65 -152 -65 -98 -79 -136 -73 -197 7 -74 121 -105 216 -58
52 27 119 98 163 174 17 31 54 76 82 102 72 68 117 165 117 254 0 36 -4 78 -9
91 -7 18 -4 36 14 74 12 27 33 92 45 144 20 85 23 123 25 389 3 325 6 348 79
577 50 156 83 288 91 366 4 38 11 65 16 61 14 -8 63 -111 82 -169 9 -27 35
-132 57 -231 46 -213 45 -207 84 -262 27 -39 31 -53 36 -145 6 -86 13 -117 44
-196 26 -65 39 -117 43 -165 3 -44 13 -84 25 -106 19 -33 20 -46 14 -200 -7
-164 -6 -166 16 -187 13 -11 33 -26 45 -32 32 -16 38 -47 17 -92 -9 -22 -14
-42 -11 -46 4 -3 24 -9 44 -12 37 -6 38 -8 38 -49 0 -37 5 -47 43 -82 47 -44
72 -92 72 -139 0 -63 85 -111 196 -111 73 0 77 1 110 34 30 30 34 40 34 89 0
59 -21 99 -85 167 -52 54 -56 76 -29 138 13 29 31 83 40 119 16 63 16 67 -2
80 -10 7 -26 11 -35 8 -10 -3 -28 -3 -42 0 -23 6 -24 11 -31 111 -4 58 -14
158 -22 222 -9 64 -16 164 -17 222 0 90 -4 111 -24 149 -24 47 -29 93 -13 135
6 16 6 28 0 31 -5 3 -19 36 -31 73 -18 58 -22 105 -29 367 -5 165 -14 338 -19
385 -28 240 -63 401 -113 523 -19 47 -21 68 -19 222 1 94 -2 211 -8 260 -47
403 -51 508 -23 558 13 25 17 56 17 138 0 101 1 108 37 180 46 92 127 184 218
244 60 40 72 52 83 90 10 36 30 60 112 135 55 50 127 108 159 128 92 57 416
370 489 471 74 103 142 178 179 197 15 8 43 14 63 14 21 0 64 14 105 35 49 24
83 35 114 35 47 0 96 17 96 33 0 5 -31 6 -79 2 -52 -4 -81 -3 -85 4 -12 18 29
48 96 70 67 22 108 46 108 62 0 17 -41 9 -105 -21 -127 -60 -144 -27 -18 35
84 41 113 61 113 76 0 20 -52 7 -128 -31 -44 -22 -85 -40 -91 -40 -24 0 -8 19
47 55 92 60 123 95 87 95 -22 0 -68 -24 -150 -79 -101 -67 -126 -77 -142 -55
-16 22 -16 39 2 89 19 52 19 89 0 105 -12 10 -16 9 -21 -6z"/>
</g>
</svg>
