<?xml version="1.0" standalone="no"?>
<!DOCTYPE svg PUBLIC "-//W3C//DTD SVG 20010904//EN"
 "http://www.w3.org/TR/2001/REC-SVG-20010904/DTD/svg10.dtd">
<svg version="1.0" xmlns="http://www.w3.org/2000/svg"
 width="1325.000000pt" height="3300.000000pt" viewBox="0 0 1325.000000 3300.000000"
 preserveAspectRatio="xMidYMid meet">

<g transform="translate(0.000000,3300.000000) scale(0.100000,-0.100000)"
fill="#000000" stroke="none">
<path d="M11531 32803 c-17 -20 -46 -69 -65 -108 -61 -125 -108 -434 -126
-835 -15 -329 -41 -459 -92 -460 -17 0 -69 110 -84 180 -10 41 -41 148 -71
236 -64 195 -103 353 -103 416 0 65 -25 189 -50 245 -45 101 -95 119 -171 60
-95 -72 -130 -224 -89 -387 5 -19 39 -248 75 -509 l66 -473 -30 -132 c-40
-177 -61 -325 -61 -435 0 -84 -2 -91 -20 -91 -30 0 -143 112 -230 228 -71 95
-78 108 -83 161 -13 145 -118 262 -284 315 -104 34 -173 16 -173 -44 0 -47 32
-131 83 -214 41 -69 54 -105 88 -241 l40 -160 83 -125 c53 -81 90 -147 100
-184 28 -96 113 -284 182 -403 65 -111 184 -285 230 -334 l25 -26 -3 -749 -3
-749 -23 -65 c-13 -36 -59 -142 -103 -236 -119 -261 -168 -392 -219 -594 -80
-317 -120 -777 -140 -1602 l-9 -387 -41 -52 c-268 -339 -489 -1120 -563 -1984
l-13 -150 -244 -307 -245 -307 -67 -20 c-364 -114 -598 -344 -598 -590 0 -57
0 -58 -53 -103 -88 -76 -145 -108 -193 -108 -34 0 -45 5 -60 28 -17 24 -19 45
-16 187 3 174 -7 235 -54 332 -53 110 -173 211 -300 253 l-64 22 0 43 c0 134
-54 423 -112 605 -156 485 -447 796 -849 909 -391 109 -834 121 -1182 32 -299
-78 -521 -205 -743 -426 -149 -149 -258 -301 -349 -488 -109 -227 -144 -372
-152 -634 -6 -199 3 -303 43 -495 56 -265 190 -609 334 -856 22 -37 27 -54 18
-57 -7 -2 -92 -24 -188 -49 -1029 -264 -1689 -749 -1980 -1452 -94 -229 -125
-366 -209 -914 -250 -1638 -331 -2210 -352 -2474 l-21 -268 124 -187 125 -186
-43 -315 -42 -315 -190 -595 c-424 -1327 -665 -2129 -802 -2665 -81 -319 -109
-464 -120 -623 -25 -347 -135 -1002 -386 -2286 -144 -736 -184 -927 -289
-1357 -210 -863 -273 -1158 -284 -1334 -14 -224 15 -493 71 -642 20 -54 47
-84 371 -410 342 -343 349 -352 339 -380 -5 -15 -127 -298 -270 -628 l-260
-600 -112 -475 c-166 -709 -154 -639 -154 -845 -1 -199 7 -245 69 -382 61
-133 145 -239 268 -338 215 -174 500 -297 987 -426 190 -50 197 -52 300 -46
438 21 1511 406 3062 1097 l297 132 49 -50 c92 -94 199 -103 429 -38 220 63
424 151 625 268 142 82 205 190 227 387 11 97 9 103 -26 122 -118 63 -235 344
-278 669 -31 236 -47 738 -29 906 l7 59 78 63 c244 198 458 296 671 309 112 7
196 -6 282 -45 53 -23 86 -55 348 -336 159 -171 309 -325 332 -342 134 -99
188 -258 136 -399 -81 -218 -92 -326 -50 -490 39 -157 182 -498 271 -649 251
-424 728 -961 1214 -1366 652 -544 1336 -880 1978 -975 620 -91 1119 27 1396
331 159 174 258 392 336 745 46 208 56 243 91 310 28 52 29 59 28 184 -1 109
-7 159 -37 305 -95 453 -327 1140 -507 1500 -135 270 -315 1008 -864 3537
-195 896 -220 1009 -291 1293 -165 657 -320 1504 -355 1935 -34 416 37 472
644 495 347 13 511 34 612 76 68 29 56 51 -78 139 -129 85 -200 156 -267 268
-122 204 -219 440 -317 780 -140 482 -198 795 -324 1727 -70 521 -115 833
-160 1125 -73 472 -81 611 -87 1620 -6 972 8 1751 52 2830 l14 350 45 135 c85
257 177 614 301 1174 l66 298 -41 1984 -41 1983 30 113 c135 508 273 1266 331
1813 39 377 43 460 50 1350 9 1089 -12 943 215 1525 193 494 237 632 250 785
5 55 16 100 36 143 36 81 139 237 217 330 197 232 302 484 250 597 -22 50 -75
40 -162 -29 -21 -17 -119 -137 -216 -266 -177 -235 -283 -350 -352 -383 -54
-26 -95 -22 -128 12 l-29 28 20 74 c10 41 41 202 68 359 47 269 51 303 65 605
l16 320 -38 37 c-50 50 -84 57 -116 25 -28 -28 -54 -106 -62 -187 -10 -98
-114 -697 -135 -777 -26 -99 -65 -172 -96 -179 -46 -12 -49 2 -57 223 -3 115
-13 249 -21 298 -31 183 -35 256 -24 405 15 192 1 332 -40 408 -19 36 -64 29
-100 -15z m-7691 -18840 c66 -114 107 -227 119 -320 16 -126 55 -194 255 -443
77 -95 120 -158 127 -185 24 -86 -21 -432 -121 -935 -32 -162 -70 -358 -85
-435 -71 -377 -178 -712 -311 -976 -61 -123 -80 -154 -170 -279 -165 -232
-211 -359 -139 -392 18 -8 50 -7 132 6 144 22 309 37 328 30 22 -9 19 -88 -6
-170 -57 -185 -134 -331 -1044 -1979 -1006 -1823 -1518 -2745 -1525 -2745 -40
0 -50 528 -20 1056 45 785 126 1547 190 1782 73 266 411 1085 995 2412 535
1214 934 2269 1030 2724 47 219 59 345 59 596 0 129 -5 256 -11 283 l-10 47
82 0 81 0 44 -77z m-3333 -8314 c42 -26 103 -95 103 -117 0 -38 -34 -232 -41
-232 -19 0 -139 78 -182 119 -79 74 -97 134 -58 197 38 62 108 75 178 33z"/>
</g>
</svg>
