<?xml version="1.0" standalone="no"?>
<!DOCTYPE svg PUBLIC "-//W3C//DTD SVG 20010904//EN"
 "http://www.w3.org/TR/2001/REC-SVG-20010904/DTD/svg10.dtd">
<svg version="1.0" xmlns="http://www.w3.org/2000/svg"
 width="1560.000000pt" height="2314.000000pt" viewBox="0 0 1560.000000 2314.000000"
 preserveAspectRatio="xMidYMid meet">

<g transform="translate(0.000000,2314.000000) scale(0.100000,-0.100000)"
fill="#000000" stroke="none">
<path d="M12010 23006 c-320 -155 -352 -174 -656 -391 -671 -479 -1068 -703
-1476 -834 -424 -135 -1064 -232 -1548 -235 -246 -1 -256 1 -467 80 -167 63
-217 76 -299 76 -78 -1 -118 -11 -287 -78 -76 -31 -168 -62 -205 -70 -37 -8
-240 -27 -452 -44 -654 -50 -701 -61 -1065 -243 -418 -208 -886 -512 -1230
-798 -204 -170 -507 -490 -722 -764 -504 -642 -1038 -1624 -1401 -2575 -369
-969 -624 -1971 -673 -2643 -23 -310 9 -735 92 -1247 86 -527 90 -564 96 -750
7 -224 -5 -314 -79 -600 -91 -351 -98 -388 -105 -526 -5 -117 -4 -139 16 -205
50 -164 143 -315 341 -554 58 -69 106 -130 108 -134 2 -5 -18 -12 -43 -16 -76
-11 -102 -43 -124 -155 -45 -220 -52 -455 -26 -960 37 -736 83 -1213 151
-1563 76 -392 181 -550 640 -974 270 -249 324 -310 339 -380 6 -29 3 -34 -27
-50 -28 -15 -56 -18 -188 -17 -230 1 -515 33 -1190 134 -570 85 -931 129
-1066 130 -109 0 -201 -66 -260 -185 -60 -123 -141 -494 -181 -825 -21 -181
-24 -645 -5 -830 30 -286 122 -724 175 -830 14 -28 40 -58 71 -80 129 -92 150
-114 169 -170 23 -70 24 -248 3 -405 -16 -115 -18 -118 -137 -344 -43 -81 -44
-86 -47 -190 -6 -186 92 -830 160 -1051 49 -159 201 -599 229 -664 82 -186
176 -300 371 -447 346 -260 754 -432 1203 -506 88 -14 168 -18 400 -18 258 0
304 3 415 23 479 86 875 280 1140 558 134 140 208 284 218 420 6 90 -9 160
-55 254 -68 137 -266 312 -523 460 -108 62 -134 84 -163 139 -34 61 -37 147
-8 214 22 50 158 206 212 242 21 13 63 31 95 39 172 43 250 29 335 -61 30 -32
69 -80 87 -106 32 -48 90 -84 118 -73 17 7 34 70 34 131 0 88 9 86 103 -22
121 -139 149 -164 267 -235 136 -82 301 -163 575 -283 245 -108 330 -138 425
-155 36 -7 241 -16 455 -21 215 -4 404 -11 420 -14 17 -2 91 -12 165 -20 597
-70 1329 -246 1809 -435 175 -69 431 -197 511 -255 36 -27 124 -96 195 -155
336 -275 393 -296 955 -355 554 -58 969 -121 1630 -246 489 -92 691 -115 964
-106 301 9 502 59 749 184 295 150 570 365 918 719 424 432 695 841 835 1260
91 271 121 522 94 769 -43 382 -177 696 -394 923 -218 228 -2851 2651 -3421
3148 -105 91 -267 213 -390 293 -212 138 -373 210 -850 377 -181 63 -309 121
-434 196 -326 195 -585 382 -682 493 -49 55 -44 86 31 200 97 146 104 188 69
389 -28 160 -22 236 27 391 33 104 39 133 39 216 0 89 -2 99 -28 136 -41 60
-116 108 -357 228 -118 59 -240 124 -270 145 -89 61 -118 131 -135 330 -10
130 -29 178 -93 240 -69 68 -179 130 -419 239 -100 46 -210 102 -245 125 -62
40 -63 42 -66 91 -2 34 7 81 28 149 16 54 30 109 30 122 0 32 -54 91 -111 119
-26 14 -50 29 -53 33 -8 14 78 186 142 282 33 51 99 127 162 190 97 95 135
123 411 300 786 503 2180 1350 2355 1430 129 59 144 71 188 157 40 81 72 111
299 282 594 446 892 598 1737 886 202 69 236 77 333 85 120 9 141 18 188 83
28 38 30 48 27 104 -3 51 -9 68 -31 90 l-26 28 75 39 c73 37 115 77 129 124
11 36 -29 106 -86 149 l-50 38 77 12 c96 15 145 47 188 123 27 48 31 64 31
132 l0 77 -50 52 c-27 28 -111 104 -185 168 -74 65 -141 125 -149 134 -11 15
-7 23 34 69 64 72 104 131 111 167 15 72 -47 162 -127 185 -63 19 -75 28 -138
104 -92 111 -109 114 -295 53 -130 -43 -194 -56 -213 -43 -9 5 -9 35 -1 121 5
62 7 132 4 156 -12 77 -65 105 -198 105 -89 0 -90 1 -58 75 39 91 18 137 -77
169 -86 29 -130 22 -388 -64 -131 -44 -240 -78 -241 -77 -2 2 37 65 86 141 74
112 110 157 203 245 289 279 367 321 591 321 140 0 211 -16 268 -61 l36 -28
69 23 c37 13 108 40 156 60 49 20 168 64 265 97 97 33 202 74 233 90 31 17
128 86 215 155 153 120 267 204 278 204 3 0 -17 -48 -44 -106 -27 -58 -56
-128 -64 -155 -15 -50 -15 -51 10 -76 24 -24 31 -25 88 -20 125 12 329 90 455
176 141 96 203 201 324 551 41 118 93 267 116 330 43 124 83 305 101 465 16
139 27 572 18 740 -24 473 -176 948 -418 1313 -179 269 -378 450 -690 629
-187 108 -631 329 -765 381 -204 79 -258 88 -448 73 -174 -14 -181 -14 -517
35 -344 50 -299 56 -600 -90z m-2522 -3982 c28 -8 52 -18 52 -22 0 -4 -9 -29
-19 -57 -56 -148 -46 -361 29 -634 38 -135 106 -235 221 -326 86 -67 247 -149
324 -165 79 -16 104 -4 206 103 l86 90 61 -33 c34 -18 99 -63 144 -99 187
-151 210 -158 315 -103 34 17 69 32 77 32 8 0 19 -14 25 -32 15 -44 40 -68 68
-68 13 0 59 18 103 40 113 57 158 65 245 44 100 -24 183 -70 315 -177 63 -50
126 -100 140 -109 24 -17 17 -17 -165 -12 l-190 6 -40 -27 c-55 -36 -77 -72
-123 -195 -76 -205 -106 -246 -267 -371 -55 -42 -110 -88 -122 -101 -28 -30
-45 -134 -37 -225 9 -99 -10 -206 -51 -278 -76 -135 -368 -511 -433 -556 -20
-14 -131 -58 -247 -98 -386 -134 -617 -235 -1011 -444 -235 -124 -300 -147
-365 -126 -34 11 -44 19 -42 34 1 11 20 151 43 310 45 323 81 497 108 535 11
14 55 45 100 70 44 25 89 53 100 63 83 76 282 685 342 1044 31 184 39 280 46
533 11 382 -23 712 -86 848 -36 77 -64 114 -197 257 -95 101 -103 113 -103
150 0 22 8 56 18 75 16 33 20 35 82 41 85 8 182 2 248 -17z"/>
</g>
</svg>
